<?xml version="1.0" encoding="utf-8" standalone="no"?>
<!DOCTYPE svg PUBLIC "-//W3C//DTD SVG 1.1//EN"
  "http://www.w3.org/Graphics/SVG/1.1/DTD/svg11.dtd">
<svg xmlns:xlink="http://www.w3.org/1999/xlink" width="576pt" height="432pt" viewBox="0 0 576 432" xmlns="http://www.w3.org/2000/svg" version="1.1">
 <metadata>
  <rdf:RDF xmlns:dc="http://purl.org/dc/elements/1.1/" xmlns:cc="http://creativecommons.org/ns#" xmlns:rdf="http://www.w3.org/1999/02/22-rdf-syntax-ns#">
   <cc:Work>
    <dc:type rdf:resource="http://purl.org/dc/dcmitype/StillImage"/>
    <dc:date>2024-02-07T22:17:52.354918</dc:date>
    <dc:format>image/svg+xml</dc:format>
    <dc:creator>
     <cc:Agent>
      <dc:title>Matplotlib v3.7.1, https://matplotlib.org/</dc:title>
     </cc:Agent>
    </dc:creator>
   </cc:Work>
  </rdf:RDF>
 </metadata>
 <defs>
  <style type="text/css">*{stroke-linejoin: round; stroke-linecap: butt}</style>
 </defs>
 <g id="figure_1">
  <g id="patch_1">
   <path d="M 0 432 
L 576 432 
L 576 0 
L 0 0 
z
" style="fill: #ffffff"/>
  </g>
  <g id="axes_1">
   <g id="patch_2">
    <path d="M 72 384.48 
L 518.4 384.48 
L 518.4 51.84 
L 72 51.84 
z
" style="fill: #ffffff"/>
   </g>
   <g id="matplotlib.axis_1">
    <g id="xtick_1">
     <g id="line2d_1">
      <defs>
       <path id="m13b1e08c02" d="M 0 0 
L 0 3.5 
" style="stroke: #000000; stroke-width: 0.8"/>
      </defs>
      <g>
       <use xlink:href="#m13b1e08c02" x="92.290909" y="384.48" style="stroke: #000000; stroke-width: 0.8"/>
      </g>
     </g>
     <g id="text_1">
      <!-- 0 -->
      <g transform="translate(89.109659 399.078438) scale(0.1 -0.1)">
       <defs>
        <path id="DejaVuSans-30" d="M 2034 4250 
Q 1547 4250 1301 3770 
Q 1056 3291 1056 2328 
Q 1056 1369 1301 889 
Q 1547 409 2034 409 
Q 2525 409 2770 889 
Q 3016 1369 3016 2328 
Q 3016 3291 2770 3770 
Q 2525 4250 2034 4250 
z
M 2034 4750 
Q 2819 4750 3233 4129 
Q 3647 3509 3647 2328 
Q 3647 1150 3233 529 
Q 2819 -91 2034 -91 
Q 1250 -91 836 529 
Q 422 1150 422 2328 
Q 422 3509 836 4129 
Q 1250 4750 2034 4750 
z
" transform="scale(0.015625)"/>
       </defs>
       <use xlink:href="#DejaVuSans-30"/>
      </g>
     </g>
    </g>
    <g id="xtick_2">
     <g id="line2d_2">
      <g>
       <use xlink:href="#m13b1e08c02" x="153.042134" y="384.48" style="stroke: #000000; stroke-width: 0.8"/>
      </g>
     </g>
     <g id="text_2">
      <!-- 25 -->
      <g transform="translate(146.679634 399.078438) scale(0.1 -0.1)">
       <defs>
        <path id="DejaVuSans-32" d="M 1228 531 
L 3431 531 
L 3431 0 
L 469 0 
L 469 531 
Q 828 903 1448 1529 
Q 2069 2156 2228 2338 
Q 2531 2678 2651 2914 
Q 2772 3150 2772 3378 
Q 2772 3750 2511 3984 
Q 2250 4219 1831 4219 
Q 1534 4219 1204 4116 
Q 875 4013 500 3803 
L 500 4441 
Q 881 4594 1212 4672 
Q 1544 4750 1819 4750 
Q 2544 4750 2975 4387 
Q 3406 4025 3406 3419 
Q 3406 3131 3298 2873 
Q 3191 2616 2906 2266 
Q 2828 2175 2409 1742 
Q 1991 1309 1228 531 
z
" transform="scale(0.015625)"/>
        <path id="DejaVuSans-35" d="M 691 4666 
L 3169 4666 
L 3169 4134 
L 1269 4134 
L 1269 2991 
Q 1406 3038 1543 3061 
Q 1681 3084 1819 3084 
Q 2600 3084 3056 2656 
Q 3513 2228 3513 1497 
Q 3513 744 3044 326 
Q 2575 -91 1722 -91 
Q 1428 -91 1123 -41 
Q 819 9 494 109 
L 494 744 
Q 775 591 1075 516 
Q 1375 441 1709 441 
Q 2250 441 2565 725 
Q 2881 1009 2881 1497 
Q 2881 1984 2565 2268 
Q 2250 2553 1709 2553 
Q 1456 2553 1204 2497 
Q 953 2441 691 2322 
L 691 4666 
z
" transform="scale(0.015625)"/>
       </defs>
       <use xlink:href="#DejaVuSans-32"/>
       <use xlink:href="#DejaVuSans-35" x="63.623047"/>
      </g>
     </g>
    </g>
    <g id="xtick_3">
     <g id="line2d_3">
      <g>
       <use xlink:href="#m13b1e08c02" x="213.793359" y="384.48" style="stroke: #000000; stroke-width: 0.8"/>
      </g>
     </g>
     <g id="text_3">
      <!-- 50 -->
      <g transform="translate(207.430859 399.078438) scale(0.1 -0.1)">
       <use xlink:href="#DejaVuSans-35"/>
       <use xlink:href="#DejaVuSans-30" x="63.623047"/>
      </g>
     </g>
    </g>
    <g id="xtick_4">
     <g id="line2d_4">
      <g>
       <use xlink:href="#m13b1e08c02" x="274.544584" y="384.48" style="stroke: #000000; stroke-width: 0.8"/>
      </g>
     </g>
     <g id="text_4">
      <!-- 75 -->
      <g transform="translate(268.182084 399.078438) scale(0.1 -0.1)">
       <defs>
        <path id="DejaVuSans-37" d="M 525 4666 
L 3525 4666 
L 3525 4397 
L 1831 0 
L 1172 0 
L 2766 4134 
L 525 4134 
L 525 4666 
z
" transform="scale(0.015625)"/>
       </defs>
       <use xlink:href="#DejaVuSans-37"/>
       <use xlink:href="#DejaVuSans-35" x="63.623047"/>
      </g>
     </g>
    </g>
    <g id="xtick_5">
     <g id="line2d_5">
      <g>
       <use xlink:href="#m13b1e08c02" x="335.295808" y="384.48" style="stroke: #000000; stroke-width: 0.8"/>
      </g>
     </g>
     <g id="text_5">
      <!-- 100 -->
      <g transform="translate(325.752058 399.078438) scale(0.1 -0.1)">
       <defs>
        <path id="DejaVuSans-31" d="M 794 531 
L 1825 531 
L 1825 4091 
L 703 3866 
L 703 4441 
L 1819 4666 
L 2450 4666 
L 2450 531 
L 3481 531 
L 3481 0 
L 794 0 
L 794 531 
z
" transform="scale(0.015625)"/>
       </defs>
       <use xlink:href="#DejaVuSans-31"/>
       <use xlink:href="#DejaVuSans-30" x="63.623047"/>
       <use xlink:href="#DejaVuSans-30" x="127.246094"/>
      </g>
     </g>
    </g>
    <g id="xtick_6">
     <g id="line2d_6">
      <g>
       <use xlink:href="#m13b1e08c02" x="396.047033" y="384.48" style="stroke: #000000; stroke-width: 0.8"/>
      </g>
     </g>
     <g id="text_6">
      <!-- 125 -->
      <g transform="translate(386.503283 399.078438) scale(0.1 -0.1)">
       <use xlink:href="#DejaVuSans-31"/>
       <use xlink:href="#DejaVuSans-32" x="63.623047"/>
       <use xlink:href="#DejaVuSans-35" x="127.246094"/>
      </g>
     </g>
    </g>
    <g id="xtick_7">
     <g id="line2d_7">
      <g>
       <use xlink:href="#m13b1e08c02" x="456.798258" y="384.48" style="stroke: #000000; stroke-width: 0.8"/>
      </g>
     </g>
     <g id="text_7">
      <!-- 150 -->
      <g transform="translate(447.254508 399.078438) scale(0.1 -0.1)">
       <use xlink:href="#DejaVuSans-31"/>
       <use xlink:href="#DejaVuSans-35" x="63.623047"/>
       <use xlink:href="#DejaVuSans-30" x="127.246094"/>
      </g>
     </g>
    </g>
    <g id="xtick_8">
     <g id="line2d_8">
      <g>
       <use xlink:href="#m13b1e08c02" x="517.549483" y="384.48" style="stroke: #000000; stroke-width: 0.8"/>
      </g>
     </g>
     <g id="text_8">
      <!-- 175 -->
      <g transform="translate(508.005733 399.078438) scale(0.1 -0.1)">
       <use xlink:href="#DejaVuSans-31"/>
       <use xlink:href="#DejaVuSans-37" x="63.623047"/>
       <use xlink:href="#DejaVuSans-35" x="127.246094"/>
      </g>
     </g>
    </g>
    <g id="text_9">
     <!-- Time [h] -->
     <g transform="translate(274.307031 412.756563) scale(0.1 -0.1)">
      <defs>
       <path id="DejaVuSans-54" d="M -19 4666 
L 3928 4666 
L 3928 4134 
L 2272 4134 
L 2272 0 
L 1638 0 
L 1638 4134 
L -19 4134 
L -19 4666 
z
" transform="scale(0.015625)"/>
       <path id="DejaVuSans-69" d="M 603 3500 
L 1178 3500 
L 1178 0 
L 603 0 
L 603 3500 
z
M 603 4863 
L 1178 4863 
L 1178 4134 
L 603 4134 
L 603 4863 
z
" transform="scale(0.015625)"/>
       <path id="DejaVuSans-6d" d="M 3328 2828 
Q 3544 3216 3844 3400 
Q 4144 3584 4550 3584 
Q 5097 3584 5394 3201 
Q 5691 2819 5691 2113 
L 5691 0 
L 5113 0 
L 5113 2094 
Q 5113 2597 4934 2840 
Q 4756 3084 4391 3084 
Q 3944 3084 3684 2787 
Q 3425 2491 3425 1978 
L 3425 0 
L 2847 0 
L 2847 2094 
Q 2847 2600 2669 2842 
Q 2491 3084 2119 3084 
Q 1678 3084 1418 2786 
Q 1159 2488 1159 1978 
L 1159 0 
L 581 0 
L 581 3500 
L 1159 3500 
L 1159 2956 
Q 1356 3278 1631 3431 
Q 1906 3584 2284 3584 
Q 2666 3584 2933 3390 
Q 3200 3197 3328 2828 
z
" transform="scale(0.015625)"/>
       <path id="DejaVuSans-65" d="M 3597 1894 
L 3597 1613 
L 953 1613 
Q 991 1019 1311 708 
Q 1631 397 2203 397 
Q 2534 397 2845 478 
Q 3156 559 3463 722 
L 3463 178 
Q 3153 47 2828 -22 
Q 2503 -91 2169 -91 
Q 1331 -91 842 396 
Q 353 884 353 1716 
Q 353 2575 817 3079 
Q 1281 3584 2069 3584 
Q 2775 3584 3186 3129 
Q 3597 2675 3597 1894 
z
M 3022 2063 
Q 3016 2534 2758 2815 
Q 2500 3097 2075 3097 
Q 1594 3097 1305 2825 
Q 1016 2553 972 2059 
L 3022 2063 
z
" transform="scale(0.015625)"/>
       <path id="DejaVuSans-20" transform="scale(0.015625)"/>
       <path id="DejaVuSans-5b" d="M 550 4863 
L 1875 4863 
L 1875 4416 
L 1125 4416 
L 1125 -397 
L 1875 -397 
L 1875 -844 
L 550 -844 
L 550 4863 
z
" transform="scale(0.015625)"/>
       <path id="DejaVuSans-68" d="M 3513 2113 
L 3513 0 
L 2938 0 
L 2938 2094 
Q 2938 2591 2744 2837 
Q 2550 3084 2163 3084 
Q 1697 3084 1428 2787 
Q 1159 2491 1159 1978 
L 1159 0 
L 581 0 
L 581 4863 
L 1159 4863 
L 1159 2956 
Q 1366 3272 1645 3428 
Q 1925 3584 2291 3584 
Q 2894 3584 3203 3211 
Q 3513 2838 3513 2113 
z
" transform="scale(0.015625)"/>
       <path id="DejaVuSans-5d" d="M 1947 4863 
L 1947 -844 
L 622 -844 
L 622 -397 
L 1369 -397 
L 1369 4416 
L 622 4416 
L 622 4863 
L 1947 4863 
z
" transform="scale(0.015625)"/>
      </defs>
      <use xlink:href="#DejaVuSans-54"/>
      <use xlink:href="#DejaVuSans-69" x="57.958984"/>
      <use xlink:href="#DejaVuSans-6d" x="85.742188"/>
      <use xlink:href="#DejaVuSans-65" x="183.154297"/>
      <use xlink:href="#DejaVuSans-20" x="244.677734"/>
      <use xlink:href="#DejaVuSans-5b" x="276.464844"/>
      <use xlink:href="#DejaVuSans-68" x="315.478516"/>
      <use xlink:href="#DejaVuSans-5d" x="378.857422"/>
     </g>
    </g>
   </g>
   <g id="matplotlib.axis_2">
    <g id="ytick_1">
     <g id="line2d_9">
      <defs>
       <path id="mcefe7fe18b" d="M 0 0 
L -3.5 0 
" style="stroke: #000000; stroke-width: 0.8"/>
      </defs>
      <g>
       <use xlink:href="#mcefe7fe18b" x="72" y="369.36" style="stroke: #000000; stroke-width: 0.8"/>
      </g>
     </g>
     <g id="text_10">
      <!-- −1.00 -->
      <g transform="translate(34.354687 373.159219) scale(0.1 -0.1)">
       <defs>
        <path id="DejaVuSans-2212" d="M 678 2272 
L 4684 2272 
L 4684 1741 
L 678 1741 
L 678 2272 
z
" transform="scale(0.015625)"/>
        <path id="DejaVuSans-2e" d="M 684 794 
L 1344 794 
L 1344 0 
L 684 0 
L 684 794 
z
" transform="scale(0.015625)"/>
       </defs>
       <use xlink:href="#DejaVuSans-2212"/>
       <use xlink:href="#DejaVuSans-31" x="83.789062"/>
       <use xlink:href="#DejaVuSans-2e" x="147.412109"/>
       <use xlink:href="#DejaVuSans-30" x="179.199219"/>
       <use xlink:href="#DejaVuSans-30" x="242.822266"/>
      </g>
     </g>
    </g>
    <g id="ytick_2">
     <g id="line2d_10">
      <g>
       <use xlink:href="#mcefe7fe18b" x="72" y="331.56" style="stroke: #000000; stroke-width: 0.8"/>
      </g>
     </g>
     <g id="text_11">
      <!-- −0.75 -->
      <g transform="translate(34.354687 335.359219) scale(0.1 -0.1)">
       <use xlink:href="#DejaVuSans-2212"/>
       <use xlink:href="#DejaVuSans-30" x="83.789062"/>
       <use xlink:href="#DejaVuSans-2e" x="147.412109"/>
       <use xlink:href="#DejaVuSans-37" x="179.199219"/>
       <use xlink:href="#DejaVuSans-35" x="242.822266"/>
      </g>
     </g>
    </g>
    <g id="ytick_3">
     <g id="line2d_11">
      <g>
       <use xlink:href="#mcefe7fe18b" x="72" y="293.76" style="stroke: #000000; stroke-width: 0.8"/>
      </g>
     </g>
     <g id="text_12">
      <!-- −0.50 -->
      <g transform="translate(34.354687 297.559219) scale(0.1 -0.1)">
       <use xlink:href="#DejaVuSans-2212"/>
       <use xlink:href="#DejaVuSans-30" x="83.789062"/>
       <use xlink:href="#DejaVuSans-2e" x="147.412109"/>
       <use xlink:href="#DejaVuSans-35" x="179.199219"/>
       <use xlink:href="#DejaVuSans-30" x="242.822266"/>
      </g>
     </g>
    </g>
    <g id="ytick_4">
     <g id="line2d_12">
      <g>
       <use xlink:href="#mcefe7fe18b" x="72" y="255.96" style="stroke: #000000; stroke-width: 0.8"/>
      </g>
     </g>
     <g id="text_13">
      <!-- −0.25 -->
      <g transform="translate(34.354687 259.759219) scale(0.1 -0.1)">
       <use xlink:href="#DejaVuSans-2212"/>
       <use xlink:href="#DejaVuSans-30" x="83.789062"/>
       <use xlink:href="#DejaVuSans-2e" x="147.412109"/>
       <use xlink:href="#DejaVuSans-32" x="179.199219"/>
       <use xlink:href="#DejaVuSans-35" x="242.822266"/>
      </g>
     </g>
    </g>
    <g id="ytick_5">
     <g id="line2d_13">
      <g>
       <use xlink:href="#mcefe7fe18b" x="72" y="218.16" style="stroke: #000000; stroke-width: 0.8"/>
      </g>
     </g>
     <g id="text_14">
      <!-- 0.00 -->
      <g transform="translate(42.734375 221.959219) scale(0.1 -0.1)">
       <use xlink:href="#DejaVuSans-30"/>
       <use xlink:href="#DejaVuSans-2e" x="63.623047"/>
       <use xlink:href="#DejaVuSans-30" x="95.410156"/>
       <use xlink:href="#DejaVuSans-30" x="159.033203"/>
      </g>
     </g>
    </g>
    <g id="ytick_6">
     <g id="line2d_14">
      <g>
       <use xlink:href="#mcefe7fe18b" x="72" y="180.36" style="stroke: #000000; stroke-width: 0.8"/>
      </g>
     </g>
     <g id="text_15">
      <!-- 0.25 -->
      <g transform="translate(42.734375 184.159219) scale(0.1 -0.1)">
       <use xlink:href="#DejaVuSans-30"/>
       <use xlink:href="#DejaVuSans-2e" x="63.623047"/>
       <use xlink:href="#DejaVuSans-32" x="95.410156"/>
       <use xlink:href="#DejaVuSans-35" x="159.033203"/>
      </g>
     </g>
    </g>
    <g id="ytick_7">
     <g id="line2d_15">
      <g>
       <use xlink:href="#mcefe7fe18b" x="72" y="142.56" style="stroke: #000000; stroke-width: 0.8"/>
      </g>
     </g>
     <g id="text_16">
      <!-- 0.50 -->
      <g transform="translate(42.734375 146.359219) scale(0.1 -0.1)">
       <use xlink:href="#DejaVuSans-30"/>
       <use xlink:href="#DejaVuSans-2e" x="63.623047"/>
       <use xlink:href="#DejaVuSans-35" x="95.410156"/>
       <use xlink:href="#DejaVuSans-30" x="159.033203"/>
      </g>
     </g>
    </g>
    <g id="ytick_8">
     <g id="line2d_16">
      <g>
       <use xlink:href="#mcefe7fe18b" x="72" y="104.76" style="stroke: #000000; stroke-width: 0.8"/>
      </g>
     </g>
     <g id="text_17">
      <!-- 0.75 -->
      <g transform="translate(42.734375 108.559219) scale(0.1 -0.1)">
       <use xlink:href="#DejaVuSans-30"/>
       <use xlink:href="#DejaVuSans-2e" x="63.623047"/>
       <use xlink:href="#DejaVuSans-37" x="95.410156"/>
       <use xlink:href="#DejaVuSans-35" x="159.033203"/>
      </g>
     </g>
    </g>
    <g id="ytick_9">
     <g id="line2d_17">
      <g>
       <use xlink:href="#mcefe7fe18b" x="72" y="66.96" style="stroke: #000000; stroke-width: 0.8"/>
      </g>
     </g>
     <g id="text_18">
      <!-- 1.00 -->
      <g transform="translate(42.734375 70.759219) scale(0.1 -0.1)">
       <use xlink:href="#DejaVuSans-31"/>
       <use xlink:href="#DejaVuSans-2e" x="63.623047"/>
       <use xlink:href="#DejaVuSans-30" x="95.410156"/>
       <use xlink:href="#DejaVuSans-30" x="159.033203"/>
      </g>
     </g>
    </g>
   </g>
   <g id="line2d_18">
    <path d="M 92.290909 87.216959 
L 498.109091 87.216959 
L 498.109091 87.216959 
" clip-path="url(#pab1f8d70e3)" style="fill: none; stroke: #1f77b4; stroke-width: 1.5; stroke-linecap: square"/>
   </g>
   <g id="line2d_19">
    <path d="M 92.290909 142.56 
L 498.109091 142.56 
L 498.109091 142.56 
" clip-path="url(#pab1f8d70e3)" style="fill: none; stroke: #ff7f0e; stroke-width: 1.5; stroke-linecap: square"/>
   </g>
   <g id="line2d_20">
    <path d="M 92.290909 349.103041 
L 128.741644 349.103041 
L 131.171693 218.16 
L 245.383996 218.16 
L 247.814045 87.216959 
L 362.026347 87.216959 
L 364.456396 218.16 
L 420.347523 218.16 
L 422.777572 349.103041 
L 498.109091 349.103041 
L 498.109091 349.103041 
" clip-path="url(#pab1f8d70e3)" style="fill: none; stroke: #2ca02c; stroke-width: 1.5; stroke-linecap: square"/>
   </g>
   <g id="line2d_21">
    <path d="M 92.290909 142.56 
L 128.741644 142.56 
L 131.171693 66.96 
L 245.383996 66.96 
L 247.814045 142.56 
L 303.705171 142.56 
L 306.13522 293.76 
L 362.026347 293.76 
L 364.456396 369.36 
L 420.347523 369.36 
L 422.777572 293.76 
L 478.668699 293.76 
L 481.098748 142.56 
L 498.109091 142.56 
L 498.109091 142.56 
" clip-path="url(#pab1f8d70e3)" style="fill: none; stroke: #d62728; stroke-width: 1.5; stroke-linecap: square"/>
   </g>
   <g id="line2d_22">
    <path d="M 92.290909 72.140121 
L 128.741644 72.140121 
L 131.171693 71.486335 
L 187.06282 71.486335 
L 189.492869 70.876011 
L 245.383996 70.876011 
L 247.814045 70.309331 
L 303.705171 70.309331 
L 306.13522 69.786462 
L 362.026347 69.786462 
L 364.456396 69.307559 
L 420.347523 69.307559 
L 422.777572 68.872764 
L 478.668699 68.872764 
L 481.098748 68.482207 
L 498.109091 68.482207 
L 498.109091 68.482207 
" clip-path="url(#pab1f8d70e3)" style="fill: none; stroke: #9467bd; stroke-width: 1.5; stroke-linecap: square"/>
   </g>
   <g id="line2d_23">
    <path d="M 92.290909 178.921816 
L 128.741644 178.921816 
L 131.171693 181.441122 
L 187.06282 181.441122 
L 189.492869 183.971308 
L 245.383996 183.971308 
L 247.814045 186.511626 
L 303.705171 186.511626 
L 306.13522 189.061321 
L 362.026347 189.061321 
L 364.456396 191.619639 
L 420.347523 191.619639 
L 422.777572 194.185821 
L 478.668699 194.185821 
L 481.098748 196.759107 
L 498.109091 196.759107 
L 498.109091 196.759107 
" clip-path="url(#pab1f8d70e3)" style="fill: none; stroke: #8c564b; stroke-width: 1.5; stroke-linecap: square"/>
   </g>
   <g id="line2d_24">
    <path d="M 92.290909 76.785544 
L 187.06282 76.785544 
L 189.492869 71.353597 
L 498.109091 71.353597 
L 498.109091 71.353597 
" clip-path="url(#pab1f8d70e3)" style="fill: none; stroke: #e377c2; stroke-width: 1.5; stroke-linecap: square"/>
   </g>
   <g id="line2d_25">
    <path d="M 92.290909 164.543741 
L 187.06282 164.543741 
L 189.492869 181.975472 
L 498.109091 181.975472 
L 498.109091 181.975472 
" clip-path="url(#pab1f8d70e3)" style="fill: none; stroke: #7f7f7f; stroke-width: 1.5; stroke-linecap: square"/>
   </g>
   <g id="line2d_26">
    <path d="M 92.290909 94.634152 
L 94.720958 122.739503 
L 97.151007 157.921755 
L 104.441154 278.398245 
L 106.871203 313.580497 
L 109.301252 341.685848 
L 111.731301 360.629851 
L 114.16135 369.007518 
L 116.591399 366.197514 
L 119.021448 352.408245 
L 121.451497 328.662398 
L 123.881546 296.721093 
L 126.311595 258.953272 
L 128.741644 218.16 
L 131.171693 218.16 
L 133.601742 177.366728 
L 136.031791 139.598907 
L 138.46184 107.657602 
L 140.891889 83.911755 
L 143.321938 70.122486 
L 145.751987 67.312482 
L 148.182036 75.690149 
L 150.612085 94.634152 
L 153.042134 122.739503 
L 155.472183 157.921755 
L 162.76233 278.398245 
L 165.192379 313.580497 
L 167.622428 341.685848 
L 170.052477 360.629851 
L 172.482526 369.007518 
L 174.912575 366.197514 
L 177.342624 352.408245 
L 179.772673 328.662398 
L 182.202722 296.721093 
L 184.632771 258.953272 
L 187.06282 218.16 
L 189.492869 218.16 
L 191.922918 177.366728 
L 194.352967 139.598907 
L 196.783016 107.657602 
L 199.213065 83.911755 
L 201.643114 70.122486 
L 204.073163 67.312482 
L 206.503212 75.690149 
L 208.933261 94.634152 
L 211.36331 122.739503 
L 213.793359 157.921755 
L 221.083506 278.398245 
L 223.513555 313.580497 
L 225.943604 341.685848 
L 228.373653 360.629851 
L 230.803702 369.007518 
L 233.233751 366.197514 
L 235.6638 352.408245 
L 238.093849 328.662398 
L 240.523898 296.721093 
L 242.953947 258.953272 
L 245.383996 218.16 
L 247.814045 218.16 
L 250.244094 177.366728 
L 252.674143 139.598907 
L 255.104192 107.657602 
L 257.534241 83.911755 
L 259.96429 70.122486 
L 262.394339 67.312482 
L 264.824388 75.690149 
L 267.254437 94.634152 
L 269.684486 122.739503 
L 272.114535 157.921755 
L 279.404682 278.398245 
L 281.834731 313.580497 
L 284.26478 341.685848 
L 286.694829 360.629851 
L 289.124878 369.007518 
L 291.554927 366.197514 
L 293.984976 352.408245 
L 296.415024 328.662398 
L 298.845073 296.721093 
L 301.275122 258.953272 
L 303.705171 218.16 
L 306.13522 218.16 
L 308.565269 177.366728 
L 310.995318 139.598907 
L 313.425367 107.657602 
L 315.855416 83.911755 
L 318.285465 70.122486 
L 320.715514 67.312482 
L 323.145563 75.690149 
L 325.575612 94.634152 
L 328.005661 122.739503 
L 330.43571 157.921755 
L 337.725857 278.398245 
L 340.155906 313.580497 
L 342.585955 341.685848 
L 345.016004 360.629851 
L 347.446053 369.007518 
L 349.876102 366.197514 
L 352.306151 352.408245 
L 354.7362 328.662398 
L 357.166249 296.721093 
L 359.596298 258.953272 
L 362.026347 218.16 
L 364.456396 218.16 
L 366.886445 177.366728 
L 369.316494 139.598907 
L 371.746543 107.657602 
L 374.176592 83.911755 
L 376.606641 70.122486 
L 379.03669 67.312482 
L 381.466739 75.690149 
L 383.896788 94.634152 
L 386.326837 122.739503 
L 388.756886 157.921755 
L 396.047033 278.398245 
L 398.477082 313.580497 
L 400.907131 341.685848 
L 403.33718 360.629851 
L 405.767229 369.007518 
L 408.197278 366.197514 
L 410.627327 352.408245 
L 413.057376 328.662398 
L 415.487425 296.721093 
L 417.917474 258.953272 
L 420.347523 218.16 
L 422.777572 218.16 
L 425.207621 177.366728 
L 427.63767 139.598907 
L 430.067719 107.657602 
L 432.497768 83.911755 
L 434.927817 70.122486 
L 437.357866 67.312482 
L 439.787915 75.690149 
L 442.217964 94.634152 
L 444.648013 122.739503 
L 447.078062 157.921755 
L 454.368209 278.398245 
L 456.798258 313.580497 
L 459.228307 341.685848 
L 461.658356 360.629851 
L 464.088405 369.007518 
L 466.518454 366.197514 
L 468.948503 352.408245 
L 471.378552 328.662398 
L 473.808601 296.721093 
L 476.23865 258.953272 
L 478.668699 218.16 
L 481.098748 218.16 
L 483.528797 177.366728 
L 485.958846 139.598907 
L 488.388895 107.657602 
L 490.818944 83.911755 
L 493.248993 70.122486 
L 495.679042 67.312482 
L 498.109091 75.690149 
L 498.109091 75.690149 
" clip-path="url(#pab1f8d70e3)" style="fill: none; stroke: #bcbd22; stroke-width: 1.5; stroke-linecap: square"/>
   </g>
   <g id="line2d_27">
    <path d="M 92.290909 305.354065 
L 94.720958 335.447547 
L 97.151007 356.842349 
L 99.581056 367.951715 
L 102.011105 367.951715 
L 104.441154 356.842349 
L 106.871203 335.447547 
L 109.301252 305.354065 
L 111.731301 268.793797 
L 119.021448 148.598166 
L 121.451497 114.957965 
L 123.881546 88.971786 
L 126.311595 72.566906 
L 128.741644 66.96 
L 131.171693 66.96 
L 133.601742 72.566906 
L 136.031791 88.971786 
L 138.46184 114.957965 
L 140.891889 148.598166 
L 143.321938 187.397451 
L 148.182036 268.793797 
L 150.612085 305.354065 
L 153.042134 335.447547 
L 155.472183 356.842349 
L 157.902232 367.951715 
L 160.332281 367.951715 
L 162.76233 356.842349 
L 165.192379 335.447547 
L 167.622428 305.354065 
L 170.052477 268.793797 
L 177.342624 148.598166 
L 179.772673 114.957965 
L 182.202722 88.971786 
L 184.632771 72.566906 
L 187.06282 66.96 
L 189.492869 66.96 
L 191.922918 72.566906 
L 194.352967 88.971786 
L 196.783016 114.957965 
L 199.213065 148.598166 
L 201.643114 187.397451 
L 206.503212 268.793797 
L 208.933261 305.354065 
L 211.36331 335.447547 
L 213.793359 356.842349 
L 216.223408 367.951715 
L 218.653457 367.951715 
L 221.083506 356.842349 
L 223.513555 335.447547 
L 225.943604 305.354065 
L 228.373653 268.793797 
L 235.6638 148.598166 
L 238.093849 114.957965 
L 240.523898 88.971786 
L 242.953947 72.566906 
L 245.383996 66.96 
L 247.814045 66.96 
L 250.244094 72.566906 
L 252.674143 88.971786 
L 255.104192 114.957965 
L 257.534241 148.598166 
L 259.96429 187.397451 
L 264.824388 268.793797 
L 267.254437 305.354065 
L 269.684486 335.447547 
L 272.114535 356.842349 
L 274.544584 367.951715 
L 276.974633 367.951715 
L 279.404682 356.842349 
L 281.834731 335.447547 
L 284.26478 305.354065 
L 286.694829 268.793797 
L 293.984976 148.598166 
L 296.415024 114.957965 
L 298.845073 88.971786 
L 301.275122 72.566906 
L 303.705171 66.96 
L 306.13522 66.96 
L 308.565269 72.566906 
L 310.995318 88.971786 
L 313.425367 114.957965 
L 315.855416 148.598166 
L 318.285465 187.397451 
L 323.145563 268.793797 
L 325.575612 305.354065 
L 328.005661 335.447547 
L 330.43571 356.842349 
L 332.865759 367.951715 
L 335.295808 367.951715 
L 337.725857 356.842349 
L 340.155906 335.447547 
L 342.585955 305.354065 
L 345.016004 268.793797 
L 352.306151 148.598166 
L 354.7362 114.957965 
L 357.166249 88.971786 
L 359.596298 72.566906 
L 362.026347 66.96 
L 364.456396 66.96 
L 366.886445 72.566906 
L 369.316494 88.971786 
L 371.746543 114.957965 
L 374.176592 148.598166 
L 376.606641 187.397451 
L 381.466739 268.793797 
L 383.896788 305.354065 
L 386.326837 335.447547 
L 388.756886 356.842349 
L 391.186935 367.951715 
L 393.616984 367.951715 
L 396.047033 356.842349 
L 398.477082 335.447547 
L 400.907131 305.354065 
L 403.33718 268.793797 
L 410.627327 148.598166 
L 413.057376 114.957965 
L 415.487425 88.971786 
L 417.917474 72.566906 
L 420.347523 66.96 
L 422.777572 66.96 
L 425.207621 72.566906 
L 427.63767 88.971786 
L 430.067719 114.957965 
L 432.497768 148.598166 
L 434.927817 187.397451 
L 439.787915 268.793797 
L 442.217964 305.354065 
L 444.648013 335.447547 
L 447.078062 356.842349 
L 449.508111 367.951715 
L 451.93816 367.951715 
L 454.368209 356.842349 
L 456.798258 335.447547 
L 459.228307 305.354065 
L 461.658356 268.793797 
L 468.948503 148.598166 
L 471.378552 114.957965 
L 473.808601 88.971786 
L 476.23865 72.566906 
L 478.668699 66.96 
L 481.098748 66.96 
L 483.528797 72.566906 
L 485.958846 88.971786 
L 488.388895 114.957965 
L 490.818944 148.598166 
L 493.248993 187.397451 
L 498.109091 268.793797 
L 498.109091 268.793797 
" clip-path="url(#pab1f8d70e3)" style="fill: none; stroke: #17becf; stroke-width: 1.5; stroke-linecap: square"/>
   </g>
   <g id="line2d_28">
    <path d="M 92.290909 66.96 
L 123.881546 66.96 
L 126.311595 218.16 
L 145.751987 218.16 
L 148.182036 66.96 
L 182.202722 66.96 
L 184.632771 218.16 
L 204.073163 218.16 
L 206.503212 66.96 
L 240.523898 66.96 
L 242.953947 218.16 
L 262.394339 218.16 
L 264.824388 66.96 
L 298.845073 66.96 
L 301.275122 218.16 
L 320.715514 218.16 
L 323.145563 66.96 
L 357.166249 66.96 
L 359.596298 218.16 
L 379.03669 218.16 
L 381.466739 66.96 
L 415.487425 66.96 
L 417.917474 218.16 
L 437.357866 218.16 
L 439.787915 66.96 
L 473.808601 66.96 
L 476.23865 218.16 
L 495.679042 218.16 
L 498.109091 66.96 
L 498.109091 66.96 
" clip-path="url(#pab1f8d70e3)" style="fill: none; stroke: #1f77b4; stroke-width: 1.5; stroke-linecap: square"/>
   </g>
   <g id="line2d_29">
    <path d="M 92.290909 218.16 
L 123.881546 218.16 
L 126.311595 66.96 
L 145.751987 66.96 
L 148.182036 218.16 
L 182.202722 218.16 
L 184.632771 66.96 
L 204.073163 66.96 
L 206.503212 218.16 
L 240.523898 218.16 
L 242.953947 66.96 
L 262.394339 66.96 
L 264.824388 218.16 
L 298.845073 218.16 
L 301.275122 66.96 
L 320.715514 66.96 
L 323.145563 218.16 
L 357.166249 218.16 
L 359.596298 66.96 
L 379.03669 66.96 
L 381.466739 218.16 
L 415.487425 218.16 
L 417.917474 66.96 
L 437.357866 66.96 
L 439.787915 218.16 
L 473.808601 218.16 
L 476.23865 66.96 
L 495.679042 66.96 
L 498.109091 218.16 
L 498.109091 218.16 
" clip-path="url(#pab1f8d70e3)" style="fill: none; stroke: #ff7f0e; stroke-width: 1.5; stroke-linecap: square"/>
   </g>
   <g id="patch_3">
    <path d="M 72 384.48 
L 72 51.84 
" style="fill: none; stroke: #000000; stroke-width: 0.8; stroke-linejoin: miter; stroke-linecap: square"/>
   </g>
   <g id="patch_4">
    <path d="M 518.4 384.48 
L 518.4 51.84 
" style="fill: none; stroke: #000000; stroke-width: 0.8; stroke-linejoin: miter; stroke-linecap: square"/>
   </g>
   <g id="patch_5">
    <path d="M 72 384.48 
L 518.4 384.48 
" style="fill: none; stroke: #000000; stroke-width: 0.8; stroke-linejoin: miter; stroke-linecap: square"/>
   </g>
   <g id="patch_6">
    <path d="M 72 51.84 
L 518.4 51.84 
" style="fill: none; stroke: #000000; stroke-width: 0.8; stroke-linejoin: miter; stroke-linecap: square"/>
   </g>
   <g id="text_19">
    <!-- Calendar signals (week) -->
    <g transform="translate(223.085625 45.84) scale(0.12 -0.12)">
     <defs>
      <path id="DejaVuSans-43" d="M 4122 4306 
L 4122 3641 
Q 3803 3938 3442 4084 
Q 3081 4231 2675 4231 
Q 1875 4231 1450 3742 
Q 1025 3253 1025 2328 
Q 1025 1406 1450 917 
Q 1875 428 2675 428 
Q 3081 428 3442 575 
Q 3803 722 4122 1019 
L 4122 359 
Q 3791 134 3420 21 
Q 3050 -91 2638 -91 
Q 1578 -91 968 557 
Q 359 1206 359 2328 
Q 359 3453 968 4101 
Q 1578 4750 2638 4750 
Q 3056 4750 3426 4639 
Q 3797 4528 4122 4306 
z
" transform="scale(0.015625)"/>
      <path id="DejaVuSans-61" d="M 2194 1759 
Q 1497 1759 1228 1600 
Q 959 1441 959 1056 
Q 959 750 1161 570 
Q 1363 391 1709 391 
Q 2188 391 2477 730 
Q 2766 1069 2766 1631 
L 2766 1759 
L 2194 1759 
z
M 3341 1997 
L 3341 0 
L 2766 0 
L 2766 531 
Q 2569 213 2275 61 
Q 1981 -91 1556 -91 
Q 1019 -91 701 211 
Q 384 513 384 1019 
Q 384 1609 779 1909 
Q 1175 2209 1959 2209 
L 2766 2209 
L 2766 2266 
Q 2766 2663 2505 2880 
Q 2244 3097 1772 3097 
Q 1472 3097 1187 3025 
Q 903 2953 641 2809 
L 641 3341 
Q 956 3463 1253 3523 
Q 1550 3584 1831 3584 
Q 2591 3584 2966 3190 
Q 3341 2797 3341 1997 
z
" transform="scale(0.015625)"/>
      <path id="DejaVuSans-6c" d="M 603 4863 
L 1178 4863 
L 1178 0 
L 603 0 
L 603 4863 
z
" transform="scale(0.015625)"/>
      <path id="DejaVuSans-6e" d="M 3513 2113 
L 3513 0 
L 2938 0 
L 2938 2094 
Q 2938 2591 2744 2837 
Q 2550 3084 2163 3084 
Q 1697 3084 1428 2787 
Q 1159 2491 1159 1978 
L 1159 0 
L 581 0 
L 581 3500 
L 1159 3500 
L 1159 2956 
Q 1366 3272 1645 3428 
Q 1925 3584 2291 3584 
Q 2894 3584 3203 3211 
Q 3513 2838 3513 2113 
z
" transform="scale(0.015625)"/>
      <path id="DejaVuSans-64" d="M 2906 2969 
L 2906 4863 
L 3481 4863 
L 3481 0 
L 2906 0 
L 2906 525 
Q 2725 213 2448 61 
Q 2172 -91 1784 -91 
Q 1150 -91 751 415 
Q 353 922 353 1747 
Q 353 2572 751 3078 
Q 1150 3584 1784 3584 
Q 2172 3584 2448 3432 
Q 2725 3281 2906 2969 
z
M 947 1747 
Q 947 1113 1208 752 
Q 1469 391 1925 391 
Q 2381 391 2643 752 
Q 2906 1113 2906 1747 
Q 2906 2381 2643 2742 
Q 2381 3103 1925 3103 
Q 1469 3103 1208 2742 
Q 947 2381 947 1747 
z
" transform="scale(0.015625)"/>
      <path id="DejaVuSans-72" d="M 2631 2963 
Q 2534 3019 2420 3045 
Q 2306 3072 2169 3072 
Q 1681 3072 1420 2755 
Q 1159 2438 1159 1844 
L 1159 0 
L 581 0 
L 581 3500 
L 1159 3500 
L 1159 2956 
Q 1341 3275 1631 3429 
Q 1922 3584 2338 3584 
Q 2397 3584 2469 3576 
Q 2541 3569 2628 3553 
L 2631 2963 
z
" transform="scale(0.015625)"/>
      <path id="DejaVuSans-73" d="M 2834 3397 
L 2834 2853 
Q 2591 2978 2328 3040 
Q 2066 3103 1784 3103 
Q 1356 3103 1142 2972 
Q 928 2841 928 2578 
Q 928 2378 1081 2264 
Q 1234 2150 1697 2047 
L 1894 2003 
Q 2506 1872 2764 1633 
Q 3022 1394 3022 966 
Q 3022 478 2636 193 
Q 2250 -91 1575 -91 
Q 1294 -91 989 -36 
Q 684 19 347 128 
L 347 722 
Q 666 556 975 473 
Q 1284 391 1588 391 
Q 1994 391 2212 530 
Q 2431 669 2431 922 
Q 2431 1156 2273 1281 
Q 2116 1406 1581 1522 
L 1381 1569 
Q 847 1681 609 1914 
Q 372 2147 372 2553 
Q 372 3047 722 3315 
Q 1072 3584 1716 3584 
Q 2034 3584 2315 3537 
Q 2597 3491 2834 3397 
z
" transform="scale(0.015625)"/>
      <path id="DejaVuSans-67" d="M 2906 1791 
Q 2906 2416 2648 2759 
Q 2391 3103 1925 3103 
Q 1463 3103 1205 2759 
Q 947 2416 947 1791 
Q 947 1169 1205 825 
Q 1463 481 1925 481 
Q 2391 481 2648 825 
Q 2906 1169 2906 1791 
z
M 3481 434 
Q 3481 -459 3084 -895 
Q 2688 -1331 1869 -1331 
Q 1566 -1331 1297 -1286 
Q 1028 -1241 775 -1147 
L 775 -588 
Q 1028 -725 1275 -790 
Q 1522 -856 1778 -856 
Q 2344 -856 2625 -561 
Q 2906 -266 2906 331 
L 2906 616 
Q 2728 306 2450 153 
Q 2172 0 1784 0 
Q 1141 0 747 490 
Q 353 981 353 1791 
Q 353 2603 747 3093 
Q 1141 3584 1784 3584 
Q 2172 3584 2450 3431 
Q 2728 3278 2906 2969 
L 2906 3500 
L 3481 3500 
L 3481 434 
z
" transform="scale(0.015625)"/>
      <path id="DejaVuSans-28" d="M 1984 4856 
Q 1566 4138 1362 3434 
Q 1159 2731 1159 2009 
Q 1159 1288 1364 580 
Q 1569 -128 1984 -844 
L 1484 -844 
Q 1016 -109 783 600 
Q 550 1309 550 2009 
Q 550 2706 781 3412 
Q 1013 4119 1484 4856 
L 1984 4856 
z
" transform="scale(0.015625)"/>
      <path id="DejaVuSans-77" d="M 269 3500 
L 844 3500 
L 1563 769 
L 2278 3500 
L 2956 3500 
L 3675 769 
L 4391 3500 
L 4966 3500 
L 4050 0 
L 3372 0 
L 2619 2869 
L 1863 0 
L 1184 0 
L 269 3500 
z
" transform="scale(0.015625)"/>
      <path id="DejaVuSans-6b" d="M 581 4863 
L 1159 4863 
L 1159 1991 
L 2875 3500 
L 3609 3500 
L 1753 1863 
L 3688 0 
L 2938 0 
L 1159 1709 
L 1159 0 
L 581 0 
L 581 4863 
z
" transform="scale(0.015625)"/>
      <path id="DejaVuSans-29" d="M 513 4856 
L 1013 4856 
Q 1481 4119 1714 3412 
Q 1947 2706 1947 2009 
Q 1947 1309 1714 600 
Q 1481 -109 1013 -844 
L 513 -844 
Q 928 -128 1133 580 
Q 1338 1288 1338 2009 
Q 1338 2731 1133 3434 
Q 928 4138 513 4856 
z
" transform="scale(0.015625)"/>
     </defs>
     <use xlink:href="#DejaVuSans-43"/>
     <use xlink:href="#DejaVuSans-61" x="69.824219"/>
     <use xlink:href="#DejaVuSans-6c" x="131.103516"/>
     <use xlink:href="#DejaVuSans-65" x="158.886719"/>
     <use xlink:href="#DejaVuSans-6e" x="220.410156"/>
     <use xlink:href="#DejaVuSans-64" x="283.789062"/>
     <use xlink:href="#DejaVuSans-61" x="347.265625"/>
     <use xlink:href="#DejaVuSans-72" x="408.544922"/>
     <use xlink:href="#DejaVuSans-20" x="449.658203"/>
     <use xlink:href="#DejaVuSans-73" x="481.445312"/>
     <use xlink:href="#DejaVuSans-69" x="533.544922"/>
     <use xlink:href="#DejaVuSans-67" x="561.328125"/>
     <use xlink:href="#DejaVuSans-6e" x="624.804688"/>
     <use xlink:href="#DejaVuSans-61" x="688.183594"/>
     <use xlink:href="#DejaVuSans-6c" x="749.462891"/>
     <use xlink:href="#DejaVuSans-73" x="777.246094"/>
     <use xlink:href="#DejaVuSans-20" x="829.345703"/>
     <use xlink:href="#DejaVuSans-28" x="861.132812"/>
     <use xlink:href="#DejaVuSans-77" x="900.146484"/>
     <use xlink:href="#DejaVuSans-65" x="981.933594"/>
     <use xlink:href="#DejaVuSans-65" x="1043.457031"/>
     <use xlink:href="#DejaVuSans-6b" x="1104.980469"/>
     <use xlink:href="#DejaVuSans-29" x="1162.890625"/>
    </g>
   </g>
   <g id="legend_1">
    <g id="patch_7">
     <path d="M 241.219531 379.48 
L 349.180469 379.48 
Q 351.180469 379.48 351.180469 377.48 
L 351.180469 199.56125 
Q 351.180469 197.56125 349.180469 197.56125 
L 241.219531 197.56125 
Q 239.219531 197.56125 239.219531 199.56125 
L 239.219531 377.48 
Q 239.219531 379.48 241.219531 379.48 
z
" style="fill: #ffffff; opacity: 0.8; stroke: #cccccc; stroke-linejoin: miter"/>
    </g>
    <g id="line2d_30">
     <path d="M 243.219531 205.659688 
L 253.219531 205.659688 
L 263.219531 205.659688 
" style="fill: none; stroke: #1f77b4; stroke-width: 1.5; stroke-linecap: square"/>
    </g>
    <g id="text_20">
     <!-- sin_month -->
     <g transform="translate(271.219531 209.159688) scale(0.1 -0.1)">
      <defs>
       <path id="DejaVuSans-5f" d="M 3263 -1063 
L 3263 -1509 
L -63 -1509 
L -63 -1063 
L 3263 -1063 
z
" transform="scale(0.015625)"/>
       <path id="DejaVuSans-6f" d="M 1959 3097 
Q 1497 3097 1228 2736 
Q 959 2375 959 1747 
Q 959 1119 1226 758 
Q 1494 397 1959 397 
Q 2419 397 2687 759 
Q 2956 1122 2956 1747 
Q 2956 2369 2687 2733 
Q 2419 3097 1959 3097 
z
M 1959 3584 
Q 2709 3584 3137 3096 
Q 3566 2609 3566 1747 
Q 3566 888 3137 398 
Q 2709 -91 1959 -91 
Q 1206 -91 779 398 
Q 353 888 353 1747 
Q 353 2609 779 3096 
Q 1206 3584 1959 3584 
z
" transform="scale(0.015625)"/>
       <path id="DejaVuSans-74" d="M 1172 4494 
L 1172 3500 
L 2356 3500 
L 2356 3053 
L 1172 3053 
L 1172 1153 
Q 1172 725 1289 603 
Q 1406 481 1766 481 
L 2356 481 
L 2356 0 
L 1766 0 
Q 1100 0 847 248 
Q 594 497 594 1153 
L 594 3053 
L 172 3053 
L 172 3500 
L 594 3500 
L 594 4494 
L 1172 4494 
z
" transform="scale(0.015625)"/>
      </defs>
      <use xlink:href="#DejaVuSans-73"/>
      <use xlink:href="#DejaVuSans-69" x="52.099609"/>
      <use xlink:href="#DejaVuSans-6e" x="79.882812"/>
      <use xlink:href="#DejaVuSans-5f" x="143.261719"/>
      <use xlink:href="#DejaVuSans-6d" x="193.261719"/>
      <use xlink:href="#DejaVuSans-6f" x="290.673828"/>
      <use xlink:href="#DejaVuSans-6e" x="351.855469"/>
      <use xlink:href="#DejaVuSans-74" x="415.234375"/>
      <use xlink:href="#DejaVuSans-68" x="454.443359"/>
     </g>
    </g>
    <g id="line2d_31">
     <path d="M 243.219531 220.615938 
L 253.219531 220.615938 
L 263.219531 220.615938 
" style="fill: none; stroke: #ff7f0e; stroke-width: 1.5; stroke-linecap: square"/>
    </g>
    <g id="text_21">
     <!-- cos_month -->
     <g transform="translate(271.219531 224.115938) scale(0.1 -0.1)">
      <defs>
       <path id="DejaVuSans-63" d="M 3122 3366 
L 3122 2828 
Q 2878 2963 2633 3030 
Q 2388 3097 2138 3097 
Q 1578 3097 1268 2742 
Q 959 2388 959 1747 
Q 959 1106 1268 751 
Q 1578 397 2138 397 
Q 2388 397 2633 464 
Q 2878 531 3122 666 
L 3122 134 
Q 2881 22 2623 -34 
Q 2366 -91 2075 -91 
Q 1284 -91 818 406 
Q 353 903 353 1747 
Q 353 2603 823 3093 
Q 1294 3584 2113 3584 
Q 2378 3584 2631 3529 
Q 2884 3475 3122 3366 
z
" transform="scale(0.015625)"/>
      </defs>
      <use xlink:href="#DejaVuSans-63"/>
      <use xlink:href="#DejaVuSans-6f" x="54.980469"/>
      <use xlink:href="#DejaVuSans-73" x="116.162109"/>
      <use xlink:href="#DejaVuSans-5f" x="168.261719"/>
      <use xlink:href="#DejaVuSans-6d" x="218.261719"/>
      <use xlink:href="#DejaVuSans-6f" x="315.673828"/>
      <use xlink:href="#DejaVuSans-6e" x="376.855469"/>
      <use xlink:href="#DejaVuSans-74" x="440.234375"/>
      <use xlink:href="#DejaVuSans-68" x="479.443359"/>
     </g>
    </g>
    <g id="line2d_32">
     <path d="M 243.219531 235.572188 
L 253.219531 235.572188 
L 263.219531 235.572188 
" style="fill: none; stroke: #2ca02c; stroke-width: 1.5; stroke-linecap: square"/>
    </g>
    <g id="text_22">
     <!-- sin_dayofweek -->
     <g transform="translate(271.219531 239.072188) scale(0.1 -0.1)">
      <defs>
       <path id="DejaVuSans-79" d="M 2059 -325 
Q 1816 -950 1584 -1140 
Q 1353 -1331 966 -1331 
L 506 -1331 
L 506 -850 
L 844 -850 
Q 1081 -850 1212 -737 
Q 1344 -625 1503 -206 
L 1606 56 
L 191 3500 
L 800 3500 
L 1894 763 
L 2988 3500 
L 3597 3500 
L 2059 -325 
z
" transform="scale(0.015625)"/>
       <path id="DejaVuSans-66" d="M 2375 4863 
L 2375 4384 
L 1825 4384 
Q 1516 4384 1395 4259 
Q 1275 4134 1275 3809 
L 1275 3500 
L 2222 3500 
L 2222 3053 
L 1275 3053 
L 1275 0 
L 697 0 
L 697 3053 
L 147 3053 
L 147 3500 
L 697 3500 
L 697 3744 
Q 697 4328 969 4595 
Q 1241 4863 1831 4863 
L 2375 4863 
z
" transform="scale(0.015625)"/>
      </defs>
      <use xlink:href="#DejaVuSans-73"/>
      <use xlink:href="#DejaVuSans-69" x="52.099609"/>
      <use xlink:href="#DejaVuSans-6e" x="79.882812"/>
      <use xlink:href="#DejaVuSans-5f" x="143.261719"/>
      <use xlink:href="#DejaVuSans-64" x="193.261719"/>
      <use xlink:href="#DejaVuSans-61" x="256.738281"/>
      <use xlink:href="#DejaVuSans-79" x="318.017578"/>
      <use xlink:href="#DejaVuSans-6f" x="377.197266"/>
      <use xlink:href="#DejaVuSans-66" x="438.378906"/>
      <use xlink:href="#DejaVuSans-77" x="471.833984"/>
      <use xlink:href="#DejaVuSans-65" x="553.621094"/>
      <use xlink:href="#DejaVuSans-65" x="615.144531"/>
      <use xlink:href="#DejaVuSans-6b" x="676.667969"/>
     </g>
    </g>
    <g id="line2d_33">
     <path d="M 243.219531 250.528438 
L 253.219531 250.528438 
L 263.219531 250.528438 
" style="fill: none; stroke: #d62728; stroke-width: 1.5; stroke-linecap: square"/>
    </g>
    <g id="text_23">
     <!-- cos_dayofweek -->
     <g transform="translate(271.219531 254.028438) scale(0.1 -0.1)">
      <use xlink:href="#DejaVuSans-63"/>
      <use xlink:href="#DejaVuSans-6f" x="54.980469"/>
      <use xlink:href="#DejaVuSans-73" x="116.162109"/>
      <use xlink:href="#DejaVuSans-5f" x="168.261719"/>
      <use xlink:href="#DejaVuSans-64" x="218.261719"/>
      <use xlink:href="#DejaVuSans-61" x="281.738281"/>
      <use xlink:href="#DejaVuSans-79" x="343.017578"/>
      <use xlink:href="#DejaVuSans-6f" x="402.197266"/>
      <use xlink:href="#DejaVuSans-66" x="463.378906"/>
      <use xlink:href="#DejaVuSans-77" x="496.833984"/>
      <use xlink:href="#DejaVuSans-65" x="578.621094"/>
      <use xlink:href="#DejaVuSans-65" x="640.144531"/>
      <use xlink:href="#DejaVuSans-6b" x="701.667969"/>
     </g>
    </g>
    <g id="line2d_34">
     <path d="M 243.219531 265.484688 
L 253.219531 265.484688 
L 263.219531 265.484688 
" style="fill: none; stroke: #9467bd; stroke-width: 1.5; stroke-linecap: square"/>
    </g>
    <g id="text_24">
     <!-- sin_dayofyear -->
     <g transform="translate(271.219531 268.984688) scale(0.1 -0.1)">
      <use xlink:href="#DejaVuSans-73"/>
      <use xlink:href="#DejaVuSans-69" x="52.099609"/>
      <use xlink:href="#DejaVuSans-6e" x="79.882812"/>
      <use xlink:href="#DejaVuSans-5f" x="143.261719"/>
      <use xlink:href="#DejaVuSans-64" x="193.261719"/>
      <use xlink:href="#DejaVuSans-61" x="256.738281"/>
      <use xlink:href="#DejaVuSans-79" x="318.017578"/>
      <use xlink:href="#DejaVuSans-6f" x="377.197266"/>
      <use xlink:href="#DejaVuSans-66" x="438.378906"/>
      <use xlink:href="#DejaVuSans-79" x="471.833984"/>
      <use xlink:href="#DejaVuSans-65" x="531.013672"/>
      <use xlink:href="#DejaVuSans-61" x="592.537109"/>
      <use xlink:href="#DejaVuSans-72" x="653.816406"/>
     </g>
    </g>
    <g id="line2d_35">
     <path d="M 243.219531 280.440938 
L 253.219531 280.440938 
L 263.219531 280.440938 
" style="fill: none; stroke: #8c564b; stroke-width: 1.5; stroke-linecap: square"/>
    </g>
    <g id="text_25">
     <!-- cos_dayofyear -->
     <g transform="translate(271.219531 283.940938) scale(0.1 -0.1)">
      <use xlink:href="#DejaVuSans-63"/>
      <use xlink:href="#DejaVuSans-6f" x="54.980469"/>
      <use xlink:href="#DejaVuSans-73" x="116.162109"/>
      <use xlink:href="#DejaVuSans-5f" x="168.261719"/>
      <use xlink:href="#DejaVuSans-64" x="218.261719"/>
      <use xlink:href="#DejaVuSans-61" x="281.738281"/>
      <use xlink:href="#DejaVuSans-79" x="343.017578"/>
      <use xlink:href="#DejaVuSans-6f" x="402.197266"/>
      <use xlink:href="#DejaVuSans-66" x="463.378906"/>
      <use xlink:href="#DejaVuSans-79" x="496.833984"/>
      <use xlink:href="#DejaVuSans-65" x="556.013672"/>
      <use xlink:href="#DejaVuSans-61" x="617.537109"/>
      <use xlink:href="#DejaVuSans-72" x="678.816406"/>
     </g>
    </g>
    <g id="line2d_36">
     <path d="M 243.219531 295.397188 
L 253.219531 295.397188 
L 263.219531 295.397188 
" style="fill: none; stroke: #e377c2; stroke-width: 1.5; stroke-linecap: square"/>
    </g>
    <g id="text_26">
     <!-- sin_week -->
     <g transform="translate(271.219531 298.897188) scale(0.1 -0.1)">
      <use xlink:href="#DejaVuSans-73"/>
      <use xlink:href="#DejaVuSans-69" x="52.099609"/>
      <use xlink:href="#DejaVuSans-6e" x="79.882812"/>
      <use xlink:href="#DejaVuSans-5f" x="143.261719"/>
      <use xlink:href="#DejaVuSans-77" x="193.261719"/>
      <use xlink:href="#DejaVuSans-65" x="275.048828"/>
      <use xlink:href="#DejaVuSans-65" x="336.572266"/>
      <use xlink:href="#DejaVuSans-6b" x="398.095703"/>
     </g>
    </g>
    <g id="line2d_37">
     <path d="M 243.219531 310.353438 
L 253.219531 310.353438 
L 263.219531 310.353438 
" style="fill: none; stroke: #7f7f7f; stroke-width: 1.5; stroke-linecap: square"/>
    </g>
    <g id="text_27">
     <!-- cos_week -->
     <g transform="translate(271.219531 313.853438) scale(0.1 -0.1)">
      <use xlink:href="#DejaVuSans-63"/>
      <use xlink:href="#DejaVuSans-6f" x="54.980469"/>
      <use xlink:href="#DejaVuSans-73" x="116.162109"/>
      <use xlink:href="#DejaVuSans-5f" x="168.261719"/>
      <use xlink:href="#DejaVuSans-77" x="218.261719"/>
      <use xlink:href="#DejaVuSans-65" x="300.048828"/>
      <use xlink:href="#DejaVuSans-65" x="361.572266"/>
      <use xlink:href="#DejaVuSans-6b" x="423.095703"/>
     </g>
    </g>
    <g id="line2d_38">
     <path d="M 243.219531 325.309687 
L 253.219531 325.309687 
L 263.219531 325.309687 
" style="fill: none; stroke: #bcbd22; stroke-width: 1.5; stroke-linecap: square"/>
    </g>
    <g id="text_28">
     <!-- sin_hour -->
     <g transform="translate(271.219531 328.809687) scale(0.1 -0.1)">
      <defs>
       <path id="DejaVuSans-75" d="M 544 1381 
L 544 3500 
L 1119 3500 
L 1119 1403 
Q 1119 906 1312 657 
Q 1506 409 1894 409 
Q 2359 409 2629 706 
Q 2900 1003 2900 1516 
L 2900 3500 
L 3475 3500 
L 3475 0 
L 2900 0 
L 2900 538 
Q 2691 219 2414 64 
Q 2138 -91 1772 -91 
Q 1169 -91 856 284 
Q 544 659 544 1381 
z
M 1991 3584 
L 1991 3584 
z
" transform="scale(0.015625)"/>
      </defs>
      <use xlink:href="#DejaVuSans-73"/>
      <use xlink:href="#DejaVuSans-69" x="52.099609"/>
      <use xlink:href="#DejaVuSans-6e" x="79.882812"/>
      <use xlink:href="#DejaVuSans-5f" x="143.261719"/>
      <use xlink:href="#DejaVuSans-68" x="193.261719"/>
      <use xlink:href="#DejaVuSans-6f" x="256.640625"/>
      <use xlink:href="#DejaVuSans-75" x="317.822266"/>
      <use xlink:href="#DejaVuSans-72" x="381.201172"/>
     </g>
    </g>
    <g id="line2d_39">
     <path d="M 243.219531 340.265938 
L 253.219531 340.265938 
L 263.219531 340.265938 
" style="fill: none; stroke: #17becf; stroke-width: 1.5; stroke-linecap: square"/>
    </g>
    <g id="text_29">
     <!-- cos_hour -->
     <g transform="translate(271.219531 343.765938) scale(0.1 -0.1)">
      <use xlink:href="#DejaVuSans-63"/>
      <use xlink:href="#DejaVuSans-6f" x="54.980469"/>
      <use xlink:href="#DejaVuSans-73" x="116.162109"/>
      <use xlink:href="#DejaVuSans-5f" x="168.261719"/>
      <use xlink:href="#DejaVuSans-68" x="218.261719"/>
      <use xlink:href="#DejaVuSans-6f" x="281.640625"/>
      <use xlink:href="#DejaVuSans-75" x="342.822266"/>
      <use xlink:href="#DejaVuSans-72" x="406.201172"/>
     </g>
    </g>
    <g id="line2d_40">
     <path d="M 243.219531 355.222188 
L 253.219531 355.222188 
L 263.219531 355.222188 
" style="fill: none; stroke: #1f77b4; stroke-width: 1.5; stroke-linecap: square"/>
    </g>
    <g id="text_30">
     <!-- daytime -->
     <g transform="translate(271.219531 358.722188) scale(0.1 -0.1)">
      <use xlink:href="#DejaVuSans-64"/>
      <use xlink:href="#DejaVuSans-61" x="63.476562"/>
      <use xlink:href="#DejaVuSans-79" x="124.755859"/>
      <use xlink:href="#DejaVuSans-74" x="183.935547"/>
      <use xlink:href="#DejaVuSans-69" x="223.144531"/>
      <use xlink:href="#DejaVuSans-6d" x="250.927734"/>
      <use xlink:href="#DejaVuSans-65" x="348.339844"/>
     </g>
    </g>
    <g id="line2d_41">
     <path d="M 243.219531 369.900313 
L 253.219531 369.900313 
L 263.219531 369.900313 
" style="fill: none; stroke: #ff7f0e; stroke-width: 1.5; stroke-linecap: square"/>
    </g>
    <g id="text_31">
     <!-- nighttime -->
     <g transform="translate(271.219531 373.400313) scale(0.1 -0.1)">
      <use xlink:href="#DejaVuSans-6e"/>
      <use xlink:href="#DejaVuSans-69" x="63.378906"/>
      <use xlink:href="#DejaVuSans-67" x="91.162109"/>
      <use xlink:href="#DejaVuSans-68" x="154.638672"/>
      <use xlink:href="#DejaVuSans-74" x="218.017578"/>
      <use xlink:href="#DejaVuSans-74" x="257.226562"/>
      <use xlink:href="#DejaVuSans-69" x="296.435547"/>
      <use xlink:href="#DejaVuSans-6d" x="324.21875"/>
      <use xlink:href="#DejaVuSans-65" x="421.630859"/>
     </g>
    </g>
   </g>
  </g>
 </g>
 <defs>
  <clipPath id="pab1f8d70e3">
   <rect x="72" y="51.84" width="446.4" height="332.64"/>
  </clipPath>
 </defs>
</svg>
